<svg width="1600" height="420" viewBox="0 0 1600 420" fill="none" xmlns="http://www.w3.org/2000/svg">
  <defs>
    <linearGradient id="bg" x1="0" y1="0" x2="1600" y2="420" gradientUnits="userSpaceOnUse">
      <stop stop-color="#05070A"/>
      <stop offset="0.5" stop-color="#0D1117"/>
      <stop offset="1" stop-color="#07090C"/>
    </linearGradient>
    <linearGradient id="red" x1="350" y1="80" x2="1250" y2="340" gradientUnits="userSpaceOnUse">
      <stop stop-color="#FF3131"/>
      <stop offset="1" stop-color="#8C1010"/>
    </linearGradient>
    <filter id="glow" x="-50%" y="-50%" width="200%" height="200%">
      <feGaussianBlur stdDeviation="10" result="blur"/>
      <feMerge>
        <feMergeNode in="blur"/>
        <feMergeNode in="SourceGraphic"/>
      </feMerge>
    </filter>
    <pattern id="grid" width="40" height="40" patternUnits="userSpaceOnUse">
      <path d="M 40 0 L 0 0 0 40" fill="none" stroke="#1C232D" stroke-width="1"/>
    </pattern>
  </defs>

  <rect width="1600" height="420" rx="24" fill="url(#bg)"/>
  <rect x="1" y="1" width="1598" height="418" rx="23" stroke="#5A1414" stroke-width="2"/>
  <rect width="1600" height="420" rx="24" fill="url(#grid)" opacity="0.35"/>

  <g opacity="0.8">
    <path d="M40 70H340L390 120H520" stroke="#FF3131" stroke-width="3"/>
    <path d="M1560 70H1260L1210 120H1080" stroke="#FF3131" stroke-width="3"/>
    <path d="M40 350H300L350 300H470" stroke="#6E1818" stroke-width="2"/>
    <path d="M1560 350H1300L1250 300H1130" stroke="#6E1818" stroke-width="2"/>
  </g>

  <g transform="translate(728 42)">
    <path d="M72 0L122 29V87L72 116L22 87V29L72 0Z" stroke="#FF3131" stroke-width="4"/>
    <text x="72" y="75" text-anchor="middle" fill="#FF3131" font-size="44" font-weight="700" font-family="monospace">HX</text>
  </g>

  <text x="800" y="220" text-anchor="middle" fill="url(#red)" font-size="110" font-weight="800" font-family="Arial, Helvetica, sans-serif" letter-spacing="8" filter="url(#glow)">HXWKXNN</text>
  <text x="800" y="285" text-anchor="middle" fill="#F0F3F6" font-size="34" font-family="monospace" letter-spacing="5">PRECISION OVER CHAOS.</text>
  <text x="800" y="336" text-anchor="middle" fill="#C7CCD1" font-size="22" font-family="monospace" letter-spacing="3">CYBERSECURITY • DEVELOPMENT • AUTOMATION</text>

  <circle cx="52" cy="42" r="7" fill="#FF3131"/>
  <text x="70" y="49" fill="#FF3131" font-size="18" font-family="monospace">SYSTEM INITIALIZED</text>
  <text x="1290" y="48" fill="#B6BDC7" font-size="16" font-family="monospace">// HXWKXNN.TECH</text>
  <text x="42" y="390" fill="#8B949E" font-size="15" font-family="monospace">&gt; TRUST THE TELEMETRY.</text>
  <text x="1250" y="390" fill="#8B949E" font-size="15" font-family="monospace">&gt; BUILD. SECURE. AUTOMATE.</text>
</svg>
